# xmcd
#
# Track frame offsets:
#	150
#	14088
#	29915
#	40320
#	54463
#	64197
#	76787
#	89527
#	105319
#	113382
#	125019
#	136381
#	146808
#	158611
#	166653
#	174794
#	187353
#
# Disc length: 2650 seconds
#
# Revision: 1
# Processed by: cddbd v1.5.1PL0 Copyright (c) Steve Scherf et al.
# Submitted via: audiograbber 1.82.02
#
DISCID=e50a5811
DTITLE=Steve Ivey - Best of Bluegrass Gospel - Vol 1
DYEAR=2004
DGENRE=Bluegrass Gospel
TTITLE0=I Am A Man Of constant Sorrow
TTITLE1=Just A Closer Walk
TTITLE2=Trust And Obey
TTITLE3=At The Crossroads
TTITLE4=Power In The Blood
TTITLE5=Softly And Tenderely
TTITLE6=What A Friend We Have In Jesus
TTITLE7=Don't Go
TTITLE8=Amazing Grace
TTITLE9=River Of Life
TTITLE10=When We All Get To Heaven
TTITLE11=When The Roll Is Called Up Yonder
TTITLE12=Only Trust Him
TTITLE13=All Hail The Power Of Jesus Name
TTITLE14=I know Whom I Have Believed
TTITLE15=I Need Thee Every Hour
TTITLE16=Come Thou Fount Of Every Blessing
EXTD=
EXTT0=
EXTT1=
EXTT2=
EXTT3=
EXTT4=
EXTT5=
EXTT6=
EXTT7=
EXTT8=
EXTT9=
EXTT10=
EXTT11=
EXTT12=
EXTT13=
EXTT14=
EXTT15=
EXTT16=
PLAYORDER=
